<?xml version="1.0" standalone="no"?><!DOCTYPE svg PUBLIC "-//W3C//DTD SVG 1.1//EN" "http://www.w3.org/Graphics/SVG/1.1/DTD/svg11.dtd"><svg t="1704259577746" class="icon" viewBox="0 0 1024 1024" version="1.1" xmlns="http://www.w3.org/2000/svg" p-id="5040" xmlns:xlink="http://www.w3.org/1999/xlink" width="200" height="200"><path d="M570.581333 806.272h61.952l20.394667 69.845333 111.146667-69.845333h130.986666V230.186667h-324.48v576.085333zM636.501333 292.693333h192.64v450.986667h-73.898666l-73.813334 46.378667-13.397333-46.250667-31.530667-0.128V292.736z m-120.746666 201.045334H377.429333a2999.466667 2999.466667 0 0 0 5.802667-194.56h135.338667s5.205333-59.733333-22.698667-59.050667H261.76c9.216-34.730667 20.821333-70.613333 34.688-107.690667 0 0-63.701333 0-85.333333 57.130667-9.002667 23.552-34.986667 114.218667-81.237334 206.848 15.573333-1.706667 67.114667-3.114667 97.450667-58.794667 5.589333-15.616 6.656-17.621333 13.568-38.485333h76.373333c0 27.776-3.157333 177.109333-4.437333 194.474667h-138.24c-31.104 0-41.173333 62.549333-41.173333 62.549333h173.482666C295.253333 688.256 232.789333 799.573333 119.466667 887.466667c54.186667 15.488 108.202667-2.432 134.912-26.197334 0 0 60.8-55.338667 94.122666-183.381333l142.762667 171.946667s20.906667-71.168-3.285333-105.856c-20.053333-23.637333-74.24-87.552-97.322667-110.72l-38.698667 30.72c11.52-36.992 18.474667-72.96 20.821334-107.690667h163.072s-0.213333-62.549333-20.053334-62.549333z" p-id="5041" fill="#8a8a8a"></path></svg>